<?xml version="1.0" encoding="utf-8"?>
<!-- Generator: Adobe Illustrator 24.1.2, SVG Export Plug-In . SVG Version: 6.00 Build 0)  -->
<svg version="1.1" id="Слой_1" xmlns="http://www.w3.org/2000/svg" xmlns:xlink="http://www.w3.org/1999/xlink" x="0px" y="0px"
	 viewBox="0 0 24 24" style="enable-background:new 0 0 24 24;" xml:space="preserve">
<g>
	<path d="M19,22H7c-1.3,0-2.6-0.5-3.5-1.5C2.5,19.6,2,18.3,2,17V5c0-0.8,0.3-1.6,0.9-2.1C3.4,2.3,4.2,2,5,2h4c0.8,0,1.6,0.3,2.1,0.9
		C11.7,3.4,12,4.2,12,4.9c1.1-1.1,3.1-1.1,4.2,0L19,7.8c0.6,0.6,0.9,1.3,0.9,2.1c0,0.8-0.3,1.5-0.8,2.1c0.8,0,1.5,0.3,2.1,0.9
		c0.6,0.6,0.9,1.3,0.9,2.1v4c0,0.8-0.3,1.6-0.9,2.1S19.8,22,19,22z M11.1,20H19c0.3,0,0.5-0.1,0.7-0.3S20,19.3,20,19v-4
		c0-0.3-0.1-0.5-0.3-0.7S19.3,14,19,14h-1.9L11.1,20z M5,4C4.7,4,4.5,4.1,4.3,4.3C4.1,4.5,4,4.7,4,5v12c0,0.8,0.3,1.6,0.9,2.1
		c1.1,1.1,3.1,1.1,4.2,0C9.7,18.6,10,17.8,10,17V5c0-0.3-0.1-0.5-0.3-0.7C9.5,4.1,9.3,4,9,4H5z M12,7.8v8.5l5.6-5.6
		c0.2-0.2,0.3-0.4,0.3-0.7c0-0.3-0.1-0.5-0.3-0.7l-2.8-2.8c-0.4-0.4-1-0.4-1.4,0L12,7.8z M7,18c-0.6,0-1-0.4-1-1s0.4-1,1-1h0
		c0.6,0,1,0.4,1,1S7.6,18,7,18z"/>
</g>
</svg>
