<?xml version="1.0" encoding="utf-8"?>
<!-- Generator: Adobe Illustrator 24.1.2, SVG Export Plug-In . SVG Version: 6.00 Build 0)  -->
<svg version="1.1" id="Слой_1" xmlns="http://www.w3.org/2000/svg" xmlns:xlink="http://www.w3.org/1999/xlink" x="0px" y="0px"
	 viewBox="0 0 24 24" style="enable-background:new 0 0 24 24;" xml:space="preserve">
<style type="text/css">
	.st0{clip-path:url(#SVGID_2_);}
</style>
<g>
	<defs>
		<rect id="SVGID_1_" width="24" height="24"/>
	</defs>
	<clipPath id="SVGID_2_">
		<use xlink:href="#SVGID_1_"  style="overflow:visible;"/>
	</clipPath>
	<g class="st0">
		<g>
			<path d="M20.5,12.6h-2.3c-0.3,0-0.6,0-0.9,0.1c-0.6-1.1-1.8-1.9-3.1-1.9H9.9c-1.4,0-2.6,0.8-3.1,1.9c-0.3-0.1-0.6-0.1-0.9-0.1
				H3.5c-1.9,0-3.5,1.6-3.5,3.5v3.8C0,21,0.9,22,2.1,22h19.8c1.2,0,2.1-0.9,2.1-2.1v-3.8C24,14.1,22.4,12.6,20.5,12.6z M6.4,14.3
				v6.3H2.1c-0.4,0-0.7-0.3-0.7-0.7v-3.8c0-1.2,0.9-2.1,2.1-2.1h2.3c0.2,0,0.4,0,0.6,0.1C6.4,14.1,6.4,14.2,6.4,14.3z M16.2,20.5
				H7.8v-6.3c0-1.2,0.9-2.1,2.1-2.1h4.2c1.2,0,2.1,0.9,2.1,2.1V20.5z M22.6,19.8c0,0.4-0.3,0.7-0.7,0.7h-4.3v-6.3c0-0.1,0-0.2,0-0.2
				c0.2,0,0.4-0.1,0.6-0.1h2.3c1.2,0,2.1,0.9,2.1,2.1V19.8z"/>
			<path d="M21.9,22H2.1c-1.2,0-2.2-1-2.2-2.2v-3.8c0-2,1.6-3.6,3.6-3.6h2.3c0.3,0,0.6,0,0.9,0.1c0.6-1.2,1.8-1.9,3.2-1.9h4.2
				c1.3,0,2.6,0.7,3.2,1.9c0.3-0.1,0.6-0.1,0.9-0.1h2.3c2,0,3.6,1.6,3.6,3.6v3.8C24.1,21.1,23.1,22,21.9,22z M3.5,12.7
				c-1.9,0-3.4,1.5-3.4,3.4v3.8c0,1.1,0.9,2,2,2h19.8c1.1,0,2-0.9,2-2v-3.8c0-1.9-1.5-3.4-3.4-3.4h-2.3c-0.3,0-0.6,0-0.9,0.1l-0.1,0
				l0-0.1c-0.6-1.2-1.8-1.9-3-1.9H9.9c-1.3,0-2.5,0.7-3,1.9l0,0.1l-0.1,0c-0.3-0.1-0.6-0.1-0.9-0.1H3.5z M21.9,20.6h-4.4v-6.4
				c0-0.1,0-0.2,0-0.2l0-0.1l0.1,0c0.2-0.1,0.4-0.1,0.6-0.1h2.3c1.2,0,2.2,1,2.2,2.2v3.8C22.7,20.3,22.3,20.6,21.9,20.6z M17.7,20.4
				h4.2c0.3,0,0.6-0.3,0.6-0.6v-3.8c0-1.1-0.9-2-2-2h-2.3c-0.1,0-0.3,0-0.4,0.1c0,0.1,0,0.1,0,0.2V20.4z M16.3,20.6H7.7v-6.4
				c0-1.2,1-2.2,2.2-2.2h4.2c1.2,0,2.2,1,2.2,2.2V20.6z M7.9,20.4h8.2v-6.2c0-1.1-0.9-2-2-2H9.9c-1.1,0-2,0.9-2,2V20.4z M6.5,20.6
				H2.1c-0.4,0-0.8-0.4-0.8-0.8v-3.8c0-1.2,1-2.2,2.2-2.2h2.3c0.2,0,0.4,0,0.6,0.1l0.1,0l0,0.1c0,0.1,0,0.2,0,0.2V20.6z M3.5,14.1
				c-1.1,0-2,0.9-2,2v3.8c0,0.3,0.3,0.6,0.6,0.6h4.2v-6.2c0-0.1,0-0.1,0-0.2c-0.1,0-0.3-0.1-0.4-0.1H3.5z"/>
		</g>
		<g>
			<path d="M4.7,5.9C3,5.9,1.6,7.3,1.6,9.1c0,1.7,1.4,3.1,3.1,3.1c1.7,0,3.1-1.4,3.1-3.1C7.8,7.3,6.4,5.9,4.7,5.9z M4.7,10.8
				C3.7,10.8,3,10,3,9.1c0-0.9,0.8-1.7,1.7-1.7s1.7,0.8,1.7,1.7C6.4,10,5.6,10.8,4.7,10.8z"/>
			<path d="M4.7,12.3c-1.8,0-3.2-1.4-3.2-3.2s1.4-3.2,3.2-3.2s3.2,1.4,3.2,3.2S6.5,12.3,4.7,12.3z M4.7,6c-1.7,0-3,1.4-3,3
				s1.4,3,3,3s3-1.4,3-3S6.4,6,4.7,6z M4.7,10.9c-1,0-1.8-0.8-1.8-1.8s0.8-1.8,1.8-1.8s1.8,0.8,1.8,1.8S5.7,10.9,4.7,10.9z M4.7,7.4
				c-0.9,0-1.6,0.7-1.6,1.6s0.7,1.6,1.6,1.6s1.6-0.7,1.6-1.6S5.6,7.4,4.7,7.4z"/>
		</g>
		<g>
			<path d="M12,2C9.7,2,7.8,3.9,7.8,6.2c0,2.3,1.9,4.2,4.2,4.2c2.3,0,4.2-1.9,4.2-4.2C16.2,3.9,14.3,2,12,2z M12,9
				c-1.5,0-2.8-1.2-2.8-2.8c0-1.5,1.2-2.8,2.8-2.8c1.5,0,2.8,1.2,2.8,2.8C14.8,7.7,13.5,9,12,9z"/>
			<path d="M12,10.5c-2.4,0-4.3-1.9-4.3-4.3S9.6,1.9,12,1.9s4.3,1.9,4.3,4.3S14.4,10.5,12,10.5z M12,2.1C9.8,2.1,7.9,4,7.9,6.2
				s1.8,4.1,4.1,4.1s4.1-1.8,4.1-4.1S14.2,2.1,12,2.1z M12,9.1c-1.6,0-2.9-1.3-2.9-2.9s1.3-2.9,2.9-2.9s2.9,1.3,2.9,2.9
				S13.6,9.1,12,9.1z M12,3.6c-1.5,0-2.7,1.2-2.7,2.7s1.2,2.7,2.7,2.7s2.7-1.2,2.7-2.7S13.5,3.6,12,3.6z"/>
		</g>
		<g>
			<path d="M19.3,5.9c-1.7,0-3.1,1.4-3.1,3.1c0,1.7,1.4,3.1,3.1,3.1c1.7,0,3.1-1.4,3.1-3.1C22.4,7.3,21,5.9,19.3,5.9z M19.3,10.8
				c-0.9,0-1.7-0.8-1.7-1.7c0-0.9,0.8-1.7,1.7-1.7c0.9,0,1.7,0.8,1.7,1.7C21,10,20.3,10.8,19.3,10.8z"/>
			<path d="M19.3,12.3c-1.8,0-3.2-1.4-3.2-3.2s1.4-3.2,3.2-3.2s3.2,1.4,3.2,3.2S21.1,12.3,19.3,12.3z M19.3,6c-1.7,0-3,1.4-3,3
				s1.4,3,3,3s3-1.4,3-3S21,6,19.3,6z M19.3,10.9c-1,0-1.8-0.8-1.8-1.8s0.8-1.8,1.8-1.8s1.8,0.8,1.8,1.8S20.3,10.9,19.3,10.9z
				 M19.3,7.4c-0.9,0-1.6,0.7-1.6,1.6s0.7,1.6,1.6,1.6s1.6-0.7,1.6-1.6S20.2,7.4,19.3,7.4z"/>
		</g>
	</g>
</g>
</svg>
