<?xml version="1.0" encoding="utf-8"?>
<!-- Generator: Adobe Illustrator 24.1.2, SVG Export Plug-In . SVG Version: 6.00 Build 0)  -->
<svg version="1.1" id="Слой_1" xmlns="http://www.w3.org/2000/svg" xmlns:xlink="http://www.w3.org/1999/xlink" x="0px" y="0px"
	 viewBox="0 0 24 24" style="enable-background:new 0 0 24 24;" xml:space="preserve">
<g>
	<path d="M3,22c-0.2,0-0.4-0.1-0.6-0.2c-0.3-0.2-0.4-0.6-0.4-1L4,12L2,3.2c-0.1-0.4,0.1-0.8,0.4-1C2.7,2,3.1,1.9,3.4,2.1l18,9
		c0.3,0.2,0.6,0.5,0.6,0.9s-0.2,0.7-0.6,0.9l-18,9C3.3,22,3.2,22,3,22z M5.8,13l-1.4,6.2L18.8,12L4.4,4.8L5.8,11H13c0.6,0,1,0.4,1,1
		s-0.4,1-1,1H5.8z"/>
</g>
</svg>
