<?xml version="1.0" encoding="utf-8"?>
<!-- Generator: Adobe Illustrator 24.1.2, SVG Export Plug-In . SVG Version: 6.00 Build 0)  -->
<svg version="1.1" id="Слой_1" xmlns="http://www.w3.org/2000/svg" xmlns:xlink="http://www.w3.org/1999/xlink" x="0px" y="0px"
	 viewBox="0 0 24 24" style="enable-background:new 0 0 24 24;" xml:space="preserve">
<g>
	<path d="M12,22c-1.3,0-2.6-0.3-3.8-0.8C7,20.7,5.9,20,4.9,19.1s-1.7-2-2.2-3.2C2.3,14.6,2,13.3,2,12c0-2.7,1-5.2,2.9-7.1
		C6.8,3,9.3,2,12,2c2.7,0,5.2,1,7.1,2.9C21,6.8,22,9.3,22,12c0,1.3-0.3,2.6-0.8,3.8c-0.5,1.2-1.2,2.3-2.2,3.2
		c-0.9,0.9-2,1.7-3.2,2.2S13.3,22,12,22z M6.8,18.1c0.6,0.5,1.4,1,2.1,1.3c1.9,0.8,4.2,0.8,6.1,0c0.8-0.3,1.5-0.8,2.1-1.3
		C15.6,17.4,13.8,17,12,17C10.2,17,8.4,17.4,6.8,18.1z M12,4C9.9,4,7.9,4.8,6.3,6.3C4.8,7.9,4,9.9,4,12c0,1.1,0.2,2.1,0.6,3.1
		c0.2,0.5,0.5,1,0.8,1.5c2-1,4.3-1.5,6.6-1.5c0,0,0,0,0,0c2.3,0,4.6,0.5,6.6,1.5c0.3-0.5,0.6-0.9,0.8-1.5c0.4-1,0.6-2,0.6-3.1
		c0-2.1-0.8-4.1-2.3-5.7C16.1,4.8,14.1,4,12,4z M12,14c-1.1,0-2.1-0.4-2.8-1.2C8.4,12.1,8,11.1,8,10s0.4-2.1,1.2-2.8
		C9.9,6.4,10.9,6,12,6c1.1,0,2.1,0.4,2.8,1.2C15.6,7.9,16,8.9,16,10s-0.4,2.1-1.2,2.8C14.1,13.6,13.1,14,12,14z M12,8
		c-0.5,0-1,0.2-1.4,0.6C10.2,9,10,9.5,10,10s0.2,1,0.6,1.4c0.8,0.8,2.1,0.8,2.8,0C13.8,11,14,10.5,14,10s-0.2-1-0.6-1.4
		C13,8.2,12.5,8,12,8z"/>
</g>
</svg>
