<?xml version="1.0" encoding="utf-8"?>
<!-- Generator: Adobe Illustrator 24.1.2, SVG Export Plug-In . SVG Version: 6.00 Build 0)  -->
<svg version="1.1" id="Слой_1" xmlns="http://www.w3.org/2000/svg" xmlns:xlink="http://www.w3.org/1999/xlink" x="0px" y="0px"
	 viewBox="0 0 24 24" style="enable-background:new 0 0 24 24;" xml:space="preserve">
<g>
	<path d="M18,22c-0.6,0-1.2-0.1-1.8-0.4c-1-0.5-1.7-1.3-2-2.3c-0.2-0.7-0.3-1.4-0.1-2.1L9,14.6c-0.4,0.4-0.8,0.8-1.3,1
		C6.9,16,6,16.1,5.1,15.9c-0.9-0.2-1.7-0.7-2.2-1.4C2.3,13.8,2,12.9,2,12c0-0.9,0.3-1.8,0.9-2.5c0.6-0.7,1.3-1.2,2.2-1.4
		C6,7.9,6.9,8,7.7,8.4c0.5,0.2,1,0.6,1.3,1l5.1-2.5c-0.1-0.7-0.1-1.4,0.1-2.1c0.3-1,1.1-1.8,2-2.3c1-0.5,2-0.6,3.1-0.2
		c1,0.3,1.8,1.1,2.3,2c0.2,0.5,0.4,1,0.4,1.5c0,0.5,0,1-0.2,1.5c-0.2,0.5-0.4,1-0.8,1.4c-0.3,0.4-0.8,0.7-1.2,1
		c-0.5,0.2-1,0.4-1.5,0.4c-0.5,0-1,0-1.5-0.2c-0.5-0.2-1-0.4-1.4-0.8c-0.1-0.1-0.3-0.3-0.4-0.4l-5.1,2.5C10,11.4,10,11.7,10,12
		s0,0.6-0.1,0.8l5.1,2.5c0.5-0.5,1.1-0.9,1.8-1.2c0.5-0.2,1-0.2,1.5-0.2c0.5,0,1,0.2,1.5,0.4c1,0.5,1.7,1.3,2,2.3
		c0.3,1,0.3,2.1-0.2,3.1c-0.5,1-1.3,1.7-2.3,2C18.8,21.9,18.4,22,18,22z M16.2,17.1c-0.2,0.5-0.3,1-0.1,1.5c0.2,0.5,0.5,0.9,1,1.2
		c0.5,0.2,1,0.3,1.5,0.1c0.5-0.2,0.9-0.5,1.2-1c0.2-0.5,0.3-1,0.1-1.5c-0.2-0.5-0.5-0.9-1-1.2c-0.2-0.1-0.5-0.2-0.8-0.2
		c-0.3,0-0.5,0-0.8,0.1C16.9,16.3,16.5,16.6,16.2,17.1C16.2,17.1,16.2,17.1,16.2,17.1z M6,10c-0.2,0-0.3,0-0.5,0.1
		c-0.4,0.1-0.8,0.4-1.1,0.7S4,11.6,4,12s0.2,0.9,0.4,1.2c0.3,0.4,0.7,0.6,1.1,0.7C6,14.1,6.4,14,6.8,13.8c0.4-0.2,0.7-0.5,0.9-0.9
		l0,0l0,0c0,0,0,0,0,0C7.9,12.6,8,12.3,8,12s-0.1-0.6-0.2-0.9c0,0,0,0,0,0l0,0l0,0c-0.2-0.4-0.5-0.7-0.9-0.9C6.6,10.1,6.3,10,6,10z
		 M16.2,6.9c0.1,0.2,0.3,0.4,0.5,0.6c0.2,0.2,0.4,0.3,0.7,0.4C17.6,8,17.9,8,18.1,8c0.3,0,0.5-0.1,0.8-0.2c0.2-0.1,0.4-0.3,0.6-0.5
		c0.2-0.2,0.3-0.4,0.4-0.7C20,6.4,20,6.1,20,5.9c0-0.3-0.1-0.5-0.2-0.8c-0.2-0.5-0.7-0.8-1.2-1c-0.5-0.2-1-0.1-1.5,0.1
		c-0.5,0.2-0.8,0.7-1,1.2C15.9,5.9,16,6.4,16.2,6.9C16.2,6.9,16.2,6.9,16.2,6.9C16.2,6.9,16.2,6.9,16.2,6.9z"/>
</g>
</svg>
