<?xml version="1.0" encoding="utf-8"?>
<!-- Generator: Adobe Illustrator 24.1.2, SVG Export Plug-In . SVG Version: 6.00 Build 0)  -->
<svg version="1.1" id="Слой_1" xmlns="http://www.w3.org/2000/svg" xmlns:xlink="http://www.w3.org/1999/xlink" x="0px" y="0px"
	 viewBox="0 0 24 24" style="enable-background:new 0 0 24 24;" xml:space="preserve">
<g>
	<path d="M12,22c-1.1,0-2.1-0.4-2.8-1.2C8.4,20.1,8,19.1,8,18H4c-0.4,0-0.8-0.2-0.9-0.6S3,16.6,3.3,16.3l1.4-1.4
		C4.9,14.7,5,14.4,5,14.2V11c0-2.7,1.6-5.2,4-6.3C9.1,4,9.4,3.4,9.9,2.9c1.1-1.1,3.1-1.1,4.2,0C14.6,3.4,14.9,4,15,4.7
		C16.1,5.2,17,6,17.7,7c0.8,1.2,1.3,2.6,1.3,4v3.2c0,0.1,0,0.3,0.1,0.4c0.1,0.1,0.1,0.2,0.2,0.3l1.4,1.4c0.3,0.3,0.4,0.7,0.2,1.1
		C20.8,17.8,20.4,18,20,18h-4c0,1.1-0.4,2.1-1.2,2.8S13.1,22,12,22z M10,18c0,0.5,0.2,1,0.6,1.4c0.7,0.7,2.1,0.7,2.8,0
		C13.8,19,14,18.5,14,18H10z M15,16h2.6c-0.2-0.2-0.3-0.4-0.4-0.7c-0.2-0.4-0.2-0.8-0.2-1.2V11c0-1-0.3-2-0.9-2.9
		c-0.6-0.8-1.4-1.5-2.4-1.8C13.3,6.1,13,5.8,13,5.3V5c0-0.3-0.1-0.5-0.3-0.7c-0.4-0.4-1-0.4-1.4,0C11.1,4.5,11,4.7,11,5v0.3
		c0,0.4-0.3,0.8-0.7,0.9C8.3,7,7,8.9,7,11v3.2c0,0.7-0.2,1.3-0.6,1.8H15z"/>
</g>
</svg>
