<?xml version="1.0" encoding="utf-8"?>
<!-- Generator: Adobe Illustrator 24.1.2, SVG Export Plug-In . SVG Version: 6.00 Build 0)  -->
<svg version="1.1" id="Слой_1" xmlns="http://www.w3.org/2000/svg" xmlns:xlink="http://www.w3.org/1999/xlink" x="0px" y="0px"
	 viewBox="0 0 24 24" style="enable-background:new 0 0 24 24;" xml:space="preserve">
<g>
	<path d="M10,20c-0.3,0-0.5-0.1-0.7-0.3l-7-7c-0.1-0.1-0.2-0.2-0.2-0.3C2,12.3,2,12.1,2,12l0,0c0,0,0,0,0,0l0,0c0-0.1,0-0.3,0.1-0.4
		c0-0.1,0.1-0.2,0.2-0.3l7-7c0.4-0.4,1-0.4,1.4,0s0.4,1,0,1.4L5.4,11H21c0.6,0,1,0.4,1,1s-0.4,1-1,1H5.4l5.3,5.3
		c0.4,0.4,0.4,1,0,1.4C10.5,19.9,10.3,20,10,20z"/>
</g>
</svg>
