<?xml version="1.0" encoding="utf-8"?>
<!-- Generator: Adobe Illustrator 24.1.2, SVG Export Plug-In . SVG Version: 6.00 Build 0)  -->
<svg version="1.1" id="Слой_1" xmlns="http://www.w3.org/2000/svg" xmlns:xlink="http://www.w3.org/1999/xlink" x="0px" y="0px"
	 viewBox="0 0 24 24" style="enable-background:new 0 0 24 24;" xml:space="preserve">
<g>
	<path d="M17,18c-0.3,0-0.5-0.1-0.7-0.3L12,13.4l-4.3,4.3c-0.4,0.4-1,0.4-1.4,0s-0.4-1,0-1.4l4.3-4.3L6.3,7.7c-0.4-0.4-0.4-1,0-1.4
		s1-0.4,1.4,0l4.3,4.3l4.3-4.3c0.4-0.4,1-0.4,1.4,0s0.4,1,0,1.4L13.4,12l4.3,4.3c0.4,0.4,0.4,1,0,1.4C17.5,17.9,17.3,18,17,18z"/>
</g>
</svg>
