<?xml version="1.0" encoding="utf-8"?>
<!-- Generator: Adobe Illustrator 24.1.2, SVG Export Plug-In . SVG Version: 6.00 Build 0)  -->
<svg version="1.1" id="Слой_1" xmlns="http://www.w3.org/2000/svg" xmlns:xlink="http://www.w3.org/1999/xlink" x="0px" y="0px"
	 viewBox="0 0 24 24" style="enable-background:new 0 0 24 24;" xml:space="preserve">
<g>
	<path d="M21,22H3c-0.6,0-1-0.4-1-1v-7c0-0.8,0.3-1.6,0.9-2.1C3.4,11.3,4.2,11,5,11v-1c0-0.8,0.3-1.6,0.9-2.1C6.4,7.3,7.2,7,8,7V6
		c0-0.6,0.4-1,1-1s1,0.4,1,1v1h1V6c0-0.6,0.4-1,1-1s1,0.4,1,1v1h1V6c0-0.6,0.4-1,1-1s1,0.4,1,1v1c0.8,0,1.6,0.3,2.1,0.9
		C18.7,8.4,19,9.2,19,10v1c0.8,0,1.6,0.3,2.1,0.9c0.6,0.6,0.9,1.3,0.9,2.1v7C22,21.6,21.6,22,21,22z M4,20h16v-3.1
		c-1.2,0.8-2.9,0.8-4.1,0c-0.6-0.4-1.3-0.4-1.9,0c-1.2,0.8-2.9,0.8-4.1,0c-0.6-0.4-1.3-0.4-1.9,0c-1.2,0.8-2.8,0.8-4.1,0V20z
		 M15,14.5c0.7,0,1.4,0.2,2.1,0.6c0.6,0.4,1.3,0.4,1.9,0c0.3-0.2,0.7-0.4,1.1-0.5V14c0-0.3-0.1-0.5-0.3-0.7S19.3,13,19,13H5
		c-0.3,0-0.5,0.1-0.7,0.3C4.1,13.5,4,13.7,4,14v0.7c0.4,0.1,0.7,0.3,1.1,0.5c0.6,0.4,1.3,0.4,1.9,0c1.2-0.8,2.9-0.8,4.1,0
		c0.6,0.4,1.3,0.4,1.9,0C13.6,14.8,14.3,14.5,15,14.5z M7,11h10v-1c0-0.3-0.1-0.5-0.3-0.7C16.5,9.1,16.3,9,16,9H8
		C7.7,9,7.5,9.1,7.3,9.3C7.1,9.5,7,9.7,7,10V11z M15,4c-0.6,0-1-0.4-1-1s0.4-1,1-1h0c0.6,0,1,0.4,1,1S15.6,4,15,4z M12,4
		c-0.6,0-1-0.4-1-1s0.4-1,1-1h0c0.6,0,1,0.4,1,1S12.6,4,12,4z M9,4C8.5,4,8,3.6,8,3s0.4-1,1-1h0c0.6,0,1,0.4,1,1S9.6,4,9,4z"/>
</g>
</svg>
