<?xml version="1.0" encoding="utf-8"?>
<!-- Generator: Adobe Illustrator 24.1.2, SVG Export Plug-In . SVG Version: 6.00 Build 0)  -->
<svg version="1.1" id="Слой_1" xmlns="http://www.w3.org/2000/svg" xmlns:xlink="http://www.w3.org/1999/xlink" x="0px" y="0px"
	 viewBox="0 0 24 24" style="enable-background:new 0 0 24 24;" xml:space="preserve">
<g>
	<path d="M12,21c-1.5,0-3-0.3-4.3-0.9L3.2,21c-0.4,0.1-0.7-0.1-1-0.3c-0.2-0.3-0.3-0.7-0.2-1l1.2-3.2C2.4,15.1,2,13.6,2,12
		c0-5,4.5-9,10-9c5.5,0,10,4,10,9C22,17,17.5,21,12,21C12,21,12,21,12,21z M7.7,18.1c0.1,0,0.3,0,0.4,0.1C9.4,18.7,10.7,19,12,19
		c4.4,0,8-3.1,8-7c0-3.9-3.6-7-8-7s-8,3.1-8,7c0,1.3,0.4,2.6,1.2,3.7c0.2,0.3,0.2,0.6,0.1,0.9l-0.8,2l3-0.6
		C7.6,18.1,7.7,18.1,7.7,18.1z M16,13c-0.6,0-1-0.4-1-1s0.4-1,1-1h0c0.6,0,1,0.4,1,1S16.6,13,16,13z M12,13c-0.6,0-1-0.4-1-1
		s0.4-1,1-1h0c0.6,0,1,0.4,1,1S12.6,13,12,13z M8,13c-0.6,0-1-0.4-1-1s0.4-1,1-1h0c0.6,0,1,0.4,1,1S8.6,13,8,13z"/>
</g>
</svg>
