<?xml version="1.0" encoding="utf-8"?>
<!-- Generator: Adobe Illustrator 24.1.2, SVG Export Plug-In . SVG Version: 6.00 Build 0)  -->
<svg version="1.1" id="Слой_1" xmlns="http://www.w3.org/2000/svg" xmlns:xlink="http://www.w3.org/1999/xlink" x="0px" y="0px"
	 viewBox="0 0 24 24" style="enable-background:new 0 0 24 24;" xml:space="preserve">
<g>
	<path d="M14,22H6c-0.8,0-1.6-0.3-2.1-0.9C3.3,20.6,3,19.8,3,19V9c0-0.8,0.3-1.6,0.9-2.1C4.4,6.3,5.2,6,6,6h1V5
		c0-0.8,0.3-1.6,0.9-2.1C8.4,2.3,9.2,2,10,2h4.6c0.5,0,1,0.2,1.4,0.6L20.4,7C20.8,7.4,21,7.9,21,8.4V15c0,0.8-0.3,1.6-0.9,2.1
		S18.8,18,18,18h-1v1c0,0.8-0.3,1.6-0.9,2.1S14.8,22,14,22z M6,8C5.7,8,5.5,8.1,5.3,8.3C5.1,8.5,5,8.7,5,9v10c0,0.3,0.1,0.5,0.3,0.7
		C5.5,19.9,5.7,20,6,20h8c0.3,0,0.5-0.1,0.7-0.3S15,19.3,15,19v-1h-5c-0.8,0-1.6-0.3-2.1-0.9C7.3,16.6,7,15.8,7,15V8H6z M16,16h2
		c0.3,0,0.5-0.1,0.7-0.3S19,15.3,19,15V8.4L14.6,4H10C9.7,4,9.5,4.1,9.3,4.3C9.1,4.5,9,4.7,9,5v10c0,0.3,0.1,0.5,0.3,0.7
		C9.5,15.9,9.7,16,10,16H16z"/>
</g>
</svg>
