<?xml version="1.0" encoding="utf-8"?>
<!-- Generator: Adobe Illustrator 24.1.2, SVG Export Plug-In . SVG Version: 6.00 Build 0)  -->
<svg version="1.1" id="Слой_1" xmlns="http://www.w3.org/2000/svg" xmlns:xlink="http://www.w3.org/1999/xlink" x="0px" y="0px"
	 viewBox="0 0 24 24" style="enable-background:new 0 0 24 24;" xml:space="preserve">
<g>
	<path d="M12,21c-0.5,0-1-0.2-1.4-0.6S10,19.5,10,19s0.2-1,0.6-1.4c0.8-0.8,2.1-0.8,2.8,0C13.8,18,14,18.5,14,19s-0.2,1-0.6,1.4
		S12.5,21,12,21z M12,14c-0.5,0-1-0.2-1.4-0.6S10,12.5,10,12s0.2-1,0.6-1.4c0.8-0.8,2.1-0.8,2.8,0C13.8,11,14,11.5,14,12
		s-0.2,1-0.6,1.4S12.5,14,12,14z M12,7c-0.5,0-1-0.2-1.4-0.6S10,5.5,10,5s0.2-1,0.6-1.4c0.8-0.8,2.1-0.8,2.8,0C13.8,4,14,4.5,14,5
		s-0.2,1-0.6,1.4S12.5,7,12,7z"/>
</g>
</svg>
