<?xml version="1.0" encoding="utf-8"?>
<!-- Generator: Adobe Illustrator 24.1.2, SVG Export Plug-In . SVG Version: 6.00 Build 0)  -->
<svg version="1.1" id="Слой_1" xmlns="http://www.w3.org/2000/svg" xmlns:xlink="http://www.w3.org/1999/xlink" x="0px" y="0px"
	 viewBox="0 0 24 24" style="enable-background:new 0 0 24 24;" xml:space="preserve">
<g>
	<path d="M15.3,22h-4c-0.2,0-0.5,0-0.7-0.1L6.9,21H5c-0.8,0-1.6-0.3-2.1-0.9C2.3,19.6,2,18.8,2,18v-6c0-0.8,0.3-1.6,0.9-2.1
		C3.4,9.3,4.2,9,5,9h2.1l2.4-3.6C9.8,4.9,10,4.4,10,3.9C10,2.9,10.9,2,11.9,2c0.9,0,1.6,0.3,2.2,0.9C14.7,3.4,15,4.2,15,5v4h3.8
		c0.5,0,1,0.1,1.5,0.4c0.4,0.3,0.8,0.6,1.1,1c0.3,0.4,0.4,0.9,0.4,1.4c0,0.5-0.1,1-0.3,1.5l-3.5,7c-0.2,0.5-0.6,0.9-1.1,1.2
		S15.8,22,15.3,22z M8,19.2l3,0.8c0.1,0,0.2,0,0.2,0h4c0.2,0,0.4-0.1,0.5-0.1s0.3-0.2,0.4-0.4l3.5-7c0.1-0.2,0.1-0.3,0.1-0.5
		c0-0.2-0.1-0.3-0.1-0.5c-0.1-0.1-0.2-0.3-0.4-0.3C19.1,11,18.9,11,18.8,11H12c-0.6,0-1-0.4-1-1s0.4-1,1-1h1V5
		c0-0.3-0.1-0.5-0.3-0.7C12.5,4.1,12.3,4,12,4c0,0,0,0,0,0c0,0.9-0.3,1.7-0.8,2.5L8,11.3V19.2z M5,11c-0.3,0-0.5,0.1-0.7,0.3
		C4.1,11.5,4,11.7,4,12v6c0,0.3,0.1,0.5,0.3,0.7C4.5,18.9,4.7,19,5,19h1v-8H5z"/>
</g>
</svg>
