<?xml version="1.0" encoding="utf-8"?>
<!-- Generator: Adobe Illustrator 24.1.2, SVG Export Plug-In . SVG Version: 6.00 Build 0)  -->
<svg version="1.1" id="Слой_1" xmlns="http://www.w3.org/2000/svg" xmlns:xlink="http://www.w3.org/1999/xlink" x="0px" y="0px"
	 viewBox="0 0 24 24" style="enable-background:new 0 0 24 24;" xml:space="preserve">
<g>
	<path d="M12,22.5c-0.4,0-0.8-0.1-1.1-0.2c-0.4-0.2-0.7-0.4-1-0.7l-4.2-4.2c-1.3-1.3-2.1-2.9-2.5-4.6C2.8,11,3,9.2,3.7,7.6
		c0.7-1.7,1.8-3,3.3-4c3-2,7-2,10,0c1.5,1,2.6,2.4,3.3,4c0.7,1.7,0.9,3.4,0.5,5.2c-0.3,1.8-1.2,3.3-2.5,4.6l0,0l-4.2,4.2
		c-0.3,0.3-0.6,0.5-1,0.7C12.8,22.4,12.4,22.5,12,22.5z M12,4c-1.4,0-2.7,0.4-3.9,1.2C7,6,6.1,7,5.5,8.3C5,9.6,4.9,11,5.1,12.4
		C5.4,13.7,6.1,15,7,16l4.2,4.2c0.1,0.1,0.2,0.2,0.3,0.2c0.2,0.1,0.5,0.1,0.8,0c0.1-0.1,0.2-0.1,0.3-0.2L17,16c1-1,1.6-2.2,1.9-3.6
		c0.3-1.4,0.1-2.8-0.4-4C17.9,7,17,6,15.9,5.2C14.7,4.4,13.4,4,12,4z M17.7,16.7L17.7,16.7L17.7,16.7z"/>
</g>
<g>
	<path d="M12,14.8c-1,0-1.9-0.4-2.7-1.1C8.6,12.9,8.3,12,8.3,11s0.4-1.9,1.1-2.7c1.4-1.4,3.9-1.4,5.3,0c0.7,0.7,1.1,1.6,1.1,2.7
		s-0.4,1.9-1.1,2.7C13.9,14.4,13,14.8,12,14.8z M12,8.8c-0.6,0-1.2,0.2-1.6,0.7c-0.4,0.4-0.7,1-0.7,1.6s0.2,1.2,0.7,1.6
		c0.8,0.8,2.3,0.8,3.2,0c0.4-0.4,0.7-1,0.7-1.6c0-0.6-0.2-1.2-0.7-1.6C13.2,9,12.6,8.8,12,8.8z"/>
</g>
</svg>
