<?xml version="1.0" encoding="utf-8"?>
<!-- Generator: Adobe Illustrator 24.1.2, SVG Export Plug-In . SVG Version: 6.00 Build 0)  -->
<svg version="1.1" id="Слой_1" xmlns="http://www.w3.org/2000/svg" xmlns:xlink="http://www.w3.org/1999/xlink" x="0px" y="0px"
	 viewBox="0 0 24 24" style="enable-background:new 0 0 24 24;" xml:space="preserve">
<g>
	<path d="M10,21H6c-1.1,0-2.1-0.4-2.8-1.2C2.4,19.1,2,18.1,2,17V7c0-1.1,0.4-2.1,1.2-2.8C3.9,3.4,4.9,3,6,3h4c1.1,0,2.1,0.4,2.8,1.2
		C13.6,4.9,14,5.9,14,7v1c0,0.6-0.4,1-1,1c-0.6,0-1-0.4-1-1V7c0-0.5-0.2-1-0.6-1.4C11,5.2,10.5,5,10,5H6C5.5,5,5,5.2,4.6,5.6
		C4.2,6,4,6.5,4,7v10c0,0.5,0.2,1,0.6,1.4C5,18.8,5.5,19,6,19h4c0.5,0,1-0.2,1.4-0.6C11.8,18,12,17.5,12,17v-1c0-0.6,0.4-1,1-1
		c0.6,0,1,0.4,1,1v1c0,1.1-0.4,2.1-1.2,2.8C12.1,20.6,11.1,21,10,21z M17,17c-0.3,0-0.5-0.1-0.7-0.3c-0.4-0.4-0.4-1,0-1.4l2.3-2.3H7
		c-0.6,0-1-0.4-1-1s0.4-1,1-1h11.6l-2.3-2.3c-0.4-0.4-0.4-1,0-1.4s1-0.4,1.4,0l4,4c0.1,0.1,0.2,0.2,0.2,0.3c0,0.1,0.1,0.2,0.1,0.4
		l0,0c0,0,0,0,0,0l0,0c0,0.1,0,0.3-0.1,0.4c0,0.1-0.1,0.2-0.2,0.3l-4,4C17.5,16.9,17.3,17,17,17z"/>
</g>
</svg>
