<?xml version="1.0" encoding="utf-8"?>
<!-- Generator: Adobe Illustrator 24.1.2, SVG Export Plug-In . SVG Version: 6.00 Build 0)  -->
<svg version="1.1" id="Слой_1" xmlns="http://www.w3.org/2000/svg" xmlns:xlink="http://www.w3.org/1999/xlink" x="0px" y="0px"
	 viewBox="0 0 24 24" style="enable-background:new 0 0 24 24;" xml:space="preserve">
<g>
	<path d="M21,22c-0.3,0-0.5-0.1-0.7-0.3l-5.4-5.4c-0.6,0.4-1.2,0.8-1.8,1.1c-1.9,0.8-4.2,0.8-6.1,0c-1-0.4-1.8-1-2.6-1.7
		C3.6,14.9,3,14,2.6,13.1c-0.4-1-0.6-2-0.6-3.1c0-2.1,0.8-4.1,2.3-5.7C5.9,2.8,7.9,2,10,2s4.1,0.8,5.7,2.3C17.2,5.9,18,7.9,18,10
		c0,1.1-0.2,2.1-0.6,3.1c-0.3,0.7-0.6,1.3-1.1,1.8l5.4,5.4c0.4,0.4,0.4,1,0,1.4C21.5,21.9,21.3,22,21,22z M10,4
		C8.4,4,6.9,4.6,5.8,5.8C4.6,6.9,4,8.4,4,10c0,0.8,0.2,1.6,0.5,2.3c0.3,0.7,0.7,1.4,1.3,1.9c0.6,0.6,1.2,1,1.9,1.3
		c1.5,0.6,3.1,0.6,4.6,0c0.7-0.3,1.4-0.7,1.9-1.3c0.6-0.6,1-1.2,1.3-1.9c0.3-0.7,0.5-1.5,0.5-2.3c0-1.6-0.6-3.1-1.8-4.2
		C13.1,4.6,11.6,4,10,4z"/>
</g>
</svg>
