<svg width="24" height="24" viewBox="0 0 24 24" fill="none" xmlns="http://www.w3.org/2000/svg">
<g clip-path="url(#clip0)">
<path d="M23.848 10.18C23.7911 9.80505 23.5326 9.49225 23.1757 9.36567L21.285 8.69339C21.1732 8.3766 21.0464 8.06863 20.9057 7.77071L21.7662 5.96005C21.9285 5.6186 21.89 5.21476 21.6657 4.90941C20.9406 3.92309 20.0741 3.0566 19.0904 2.33473C18.7847 2.11036 18.3823 2.07221 18.0402 2.23501L16.2306 3.09475C15.9327 2.95412 15.6243 2.82754 15.3072 2.7157L14.6347 0.824744C14.5081 0.468562 14.1961 0.210723 13.822 0.15315C12.4929 -0.0511109 11.5092 -0.0511109 10.178 0.15315C9.80431 0.210723 9.49193 0.468562 9.36535 0.824744L8.69279 2.7157C8.37572 2.82754 8.06734 2.95412 7.76969 3.09475L5.95944 2.23501C5.618 2.07235 5.21485 2.1105 4.90949 2.33473C3.92579 3.0566 3.0593 3.92309 2.33413 4.90941C2.10976 5.21476 2.07133 5.61846 2.23372 5.96005L3.09415 7.77071C2.95352 8.06808 2.82694 8.37674 2.71483 8.69339L0.823866 9.36636C0.467271 9.49294 0.209156 9.8056 0.151859 10.18C0.0486954 10.8576 0.000488281 11.4354 0.000488281 12.0007C0.000488281 12.5651 0.0486954 13.1437 0.151859 13.8214C0.208743 14.1963 0.467271 14.5091 0.824142 14.6357L2.71483 15.308C2.82694 15.6253 2.95393 15.9334 3.09415 16.2313L2.23372 18.0413C2.07133 18.3828 2.1099 18.7866 2.33385 19.0913C3.05806 20.0769 3.92455 20.9434 4.90949 21.6666C5.21485 21.891 5.618 21.9298 5.95972 21.7663L7.76928 20.9066C8.0672 21.0472 8.37559 21.1738 8.69265 21.2857L9.36521 23.1766C9.49179 23.5328 9.80376 23.7906 10.1778 23.8482C10.8428 23.9507 11.4387 24.0003 11.9998 24.0003C12.5609 24.0003 13.1569 23.9507 13.8218 23.8482C14.1957 23.7906 14.5078 23.5328 14.6344 23.1766L15.3069 21.2857C15.624 21.1738 15.9324 21.0472 16.2303 20.9066L18.0399 21.7663C18.382 21.9297 18.7852 21.8909 19.0905 21.6666C20.0766 20.9421 20.9431 20.0756 21.6659 19.0913C21.8898 18.7866 21.9284 18.3828 21.766 18.0413L20.9056 16.2313C21.0462 15.9334 21.1731 15.6246 21.2849 15.308L23.1756 14.6357C23.5325 14.5091 23.791 14.1964 23.8479 13.8214C23.951 13.1437 23.9992 12.5653 23.9992 12.0007C23.9992 11.4361 23.9512 10.8575 23.848 10.18ZM21.8927 12.9085L20.119 13.5393C19.8089 13.6491 19.5705 13.9009 19.4771 14.217C19.3187 14.7526 19.1102 15.2595 18.8568 15.7242C18.6995 16.0134 18.6897 16.3604 18.831 16.6576L19.6355 18.3497C19.2469 18.8165 18.817 19.247 18.3495 19.6353L16.6577 18.8318C16.3601 18.6891 16.0142 18.7005 15.7246 18.8573C15.2592 19.1104 14.752 19.3187 14.216 19.4773C13.9005 19.5704 13.6488 19.8087 13.5387 20.1188L12.9076 21.8932C12.2634 21.9588 11.7365 21.9588 11.0923 21.8932L10.4612 20.1188C10.351 19.8094 10.0992 19.5703 9.78392 19.4773C9.24759 19.3187 8.74003 19.1104 8.27532 18.8573C7.98566 18.6993 7.63912 18.6892 7.34216 18.8318L5.65037 19.636C5.18331 19.2469 4.75344 18.817 4.36434 18.3497L5.16885 16.6576C5.31016 16.3603 5.30038 16.0134 5.14309 15.7242C4.89035 15.2609 4.68168 14.7533 4.52273 14.2163C4.42935 13.9009 4.19065 13.6491 3.88089 13.5393L2.10714 12.9085C2.07367 12.5858 2.05756 12.2884 2.05756 12.0005C2.05756 11.7127 2.07367 11.416 2.10714 11.0933L3.8813 10.4619C4.19093 10.3521 4.42935 10.1004 4.52273 9.78494C4.6814 9.24929 4.89007 8.74174 5.14309 8.27633C5.30038 7.98778 5.31016 7.64013 5.16885 7.34359L4.36434 5.65152C4.75371 5.18419 5.18358 4.75363 5.65037 4.36522L7.34285 5.16945C7.63912 5.31214 7.98704 5.30071 8.276 5.14397C8.74045 4.89081 9.24759 4.68256 9.78392 4.52389C10.0993 4.43078 10.3511 4.19181 10.4612 3.88246L11.0923 2.10802C11.7304 2.04177 12.2583 2.04177 12.9076 2.10802L13.5387 3.88246C13.6489 4.19181 13.9007 4.43092 14.216 4.52389C14.7523 4.68256 15.2598 4.89081 15.7246 5.14397C16.0142 5.30195 16.3601 5.312 16.6577 5.16945L18.3495 4.36522C18.8163 4.75363 19.2462 5.18419 19.6355 5.65152L18.831 7.34359C18.6897 7.64027 18.6995 7.98778 18.8568 8.27633C19.1106 8.74311 19.3192 9.24998 19.4771 9.78425C19.5705 10.1004 19.8089 10.3521 20.119 10.4619L21.8927 11.0927C21.9262 11.4154 21.9423 11.7128 21.9423 12.0007C21.9423 12.2885 21.9262 12.5858 21.8927 12.9085Z" fill="black"/>
<path d="M11.9999 6.99719C9.37441 6.99719 7.23828 9.13318 7.23828 11.7588C7.23828 14.3845 9.37427 16.5204 11.9999 16.5204C14.6255 16.5204 16.7615 14.3845 16.7615 11.7588C16.7615 9.13318 14.6254 6.99719 11.9999 6.99719ZM11.9999 14.4634C10.5087 14.4634 9.29535 13.2501 9.29535 11.7588C9.29535 10.2676 10.5087 9.05426 11.9999 9.05426C13.4912 9.05426 14.7045 10.2676 14.7045 11.7588C14.7045 13.2501 13.4912 14.4634 11.9999 14.4634Z" fill="black"/>
</g>
<defs>
<clipPath id="clip0">
<rect width="24" height="24" fill="white"/>
</clipPath>
</defs>
</svg>
