<?xml version="1.0" encoding="utf-8"?>
<!-- Generator: Adobe Illustrator 24.1.2, SVG Export Plug-In . SVG Version: 6.00 Build 0)  -->
<svg version="1.1" id="Слой_1" xmlns="http://www.w3.org/2000/svg" xmlns:xlink="http://www.w3.org/1999/xlink" x="0px" y="0px"
	 viewBox="0 0 24 24" style="enable-background:new 0 0 24 24;" xml:space="preserve">
<style type="text/css">
	.st0{clip-path:url(#SVGID_2_);}
</style>
<g>
	<defs>
		<rect id="SVGID_1_" width="24" height="24"/>
	</defs>
	<clipPath id="SVGID_2_">
		<use xlink:href="#SVGID_1_"  style="overflow:visible;"/>
	</clipPath>
	<g class="st0">
		<path d="M23.8,10.2c-0.1-0.4-0.3-0.7-0.7-0.8l-1.9-0.7c-0.1-0.3-0.2-0.6-0.4-0.9L21.8,6c0.2-0.3,0.1-0.7-0.1-1.1
			c-0.7-1-1.6-1.9-2.6-2.6c-0.3-0.2-0.7-0.3-1.1-0.1l-1.8,0.9c-0.3-0.1-0.6-0.3-0.9-0.4l-0.7-1.9c-0.1-0.4-0.4-0.6-0.8-0.7
			c-1.3-0.2-2.3-0.2-3.6,0C9.8,0.2,9.5,0.5,9.4,0.8L8.7,2.7C8.4,2.8,8.1,3,7.8,3.1L6,2.2c-0.3-0.2-0.7-0.1-1,0.1
			c-1,0.7-1.9,1.6-2.6,2.6C2.1,5.2,2.1,5.6,2.2,6l0.9,1.8C3,8.1,2.8,8.4,2.7,8.7L0.8,9.4c-0.4,0.1-0.6,0.4-0.7,0.8
			C0,10.9,0,11.4,0,12c0,0.6,0,1.1,0.2,1.8c0.1,0.4,0.3,0.7,0.7,0.8l1.9,0.7c0.1,0.3,0.2,0.6,0.4,0.9L2.2,18c-0.2,0.3-0.1,0.7,0.1,1
			c0.7,1,1.6,1.9,2.6,2.6c0.3,0.2,0.7,0.3,1.1,0.1l1.8-0.9c0.3,0.1,0.6,0.3,0.9,0.4l0.7,1.9c0.1,0.4,0.4,0.6,0.8,0.7
			C10.8,24,11.4,24,12,24s1.2,0,1.8-0.2c0.4-0.1,0.7-0.3,0.8-0.7l0.7-1.9c0.3-0.1,0.6-0.2,0.9-0.4l1.8,0.9c0.3,0.2,0.7,0.1,1.1-0.1
			c1-0.7,1.9-1.6,2.6-2.6c0.2-0.3,0.3-0.7,0.1-1l-0.9-1.8c0.1-0.3,0.3-0.6,0.4-0.9l1.9-0.7c0.4-0.1,0.6-0.4,0.7-0.8
			C24,13.1,24,12.6,24,12S24,10.9,23.8,10.2z M21.9,12.9l-1.8,0.6c-0.3,0.1-0.5,0.4-0.6,0.7c-0.2,0.5-0.4,1-0.6,1.5
			c-0.2,0.3-0.2,0.6,0,0.9l0.8,1.7c-0.4,0.5-0.8,0.9-1.3,1.3l-1.7-0.8c-0.3-0.1-0.6-0.1-0.9,0c-0.5,0.3-1,0.5-1.5,0.6
			c-0.3,0.1-0.6,0.3-0.7,0.6l-0.6,1.8c-0.6,0.1-1.2,0.1-1.8,0l-0.6-1.8c-0.1-0.3-0.4-0.5-0.7-0.6c-0.5-0.2-1-0.4-1.5-0.6
			c-0.3-0.2-0.6-0.2-0.9,0l-1.7,0.8c-0.5-0.4-0.9-0.8-1.3-1.3l0.8-1.7c0.1-0.3,0.1-0.6,0-0.9c-0.3-0.5-0.5-1-0.6-1.5
			c-0.1-0.3-0.3-0.6-0.6-0.7l-1.8-0.6c0-0.3,0-0.6,0-0.9c0-0.3,0-0.6,0-0.9l1.8-0.6c0.3-0.1,0.5-0.4,0.6-0.7c0.2-0.5,0.4-1,0.6-1.5
			c0.2-0.3,0.2-0.6,0-0.9L4.4,5.7c0.4-0.5,0.8-0.9,1.3-1.3l1.7,0.8c0.3,0.1,0.6,0.1,0.9,0c0.5-0.3,1-0.5,1.5-0.6
			c0.3-0.1,0.6-0.3,0.7-0.6l0.6-1.8c0.6-0.1,1.2-0.1,1.8,0l0.6,1.8c0.1,0.3,0.4,0.5,0.7,0.6c0.5,0.2,1,0.4,1.5,0.6
			c0.3,0.2,0.6,0.2,0.9,0l1.7-0.8c0.5,0.4,0.9,0.8,1.3,1.3l-0.8,1.7c-0.1,0.3-0.1,0.6,0,0.9c0.3,0.5,0.5,1,0.6,1.5
			c0.1,0.3,0.3,0.6,0.6,0.7l1.8,0.6c0,0.3,0,0.6,0,0.9C21.9,12.3,21.9,12.6,21.9,12.9z"/>
		<path d="M12,7c-2.6,0-4.8,2.1-4.8,4.8c0,2.6,2.1,4.8,4.8,4.8c2.6,0,4.8-2.1,4.8-4.8C16.8,9.1,14.6,7,12,7z M12,14.5
			c-1.5,0-2.7-1.2-2.7-2.7c0-1.5,1.2-2.7,2.7-2.7c1.5,0,2.7,1.2,2.7,2.7C14.7,13.3,13.5,14.5,12,14.5z"/>
	</g>
</g>
</svg>
