<svg width="24" height="24" viewBox="0 0 24 24" fill="none" xmlns="http://www.w3.org/2000/svg">
<path d="M9.61 20C6.27199 20 3.63375 19.4349 2.37154 18.4499L2.34698 18.4307L2.3247 18.4091C2.02486 18.1184 1.9266 17.7371 2.05538 17.363L2.06713 17.332C2.22338 16.9533 2.60622 16.6984 3.02111 16.696C3.87499 16.6817 4.62206 16.5831 5.30001 16.3916C4.21862 15.9043 3.46743 15.0605 3.0205 13.8392C2.8702 13.4583 2.9999 13.036 3.34627 12.7842C3.43172 12.722 3.52831 12.675 3.63054 12.6435C3.02965 11.9713 2.58578 11.2065 2.33721 10.3976L2.32943 10.3724L2.32409 10.3467C2.23971 9.93758 2.42846 9.51693 2.77437 9.33581C2.91948 9.25508 3.07711 9.21324 3.23534 9.20969C3.06475 8.85366 2.94069 8.48816 2.86715 8.12044C2.66299 7.10143 2.83144 6.0799 3.36764 5.08424L3.49169 4.84383C3.59102 4.65147 3.78084 4.51633 3.99965 4.48188C4.21846 4.44758 4.44277 4.51766 4.59948 4.66951L4.82546 4.88878C6.61073 6.70237 8.20985 7.56288 10.9746 8.15164C11.098 7.12331 11.5569 6.16743 12.2971 5.41514C13.178 4.52003 14.3543 4.01776 15.6093 4.00061H15.6175C16.5332 4.00061 17.6691 4.50716 18.356 4.86438C18.9453 4.67749 19.6553 4.38814 20.392 4.08223C20.7367 3.9255 21.1617 3.99721 21.4326 4.2598C21.6983 4.51722 21.772 4.8802 21.631 5.23298C21.5775 5.37744 21.5167 5.51923 21.4491 5.65792C21.55 5.70272 21.6423 5.76349 21.7203 5.83904C21.956 6.06748 22.0543 6.42499 21.9705 6.74998L21.9615 6.78088C21.6792 7.66239 21.1369 8.38037 20.4198 8.83104C20.3 15.0115 15.4968 20 9.61 20ZM3.49627 17.8169C4.68569 18.469 6.95238 18.8634 9.61 18.8634C12.1651 18.8634 14.5763 17.8005 16.3992 15.8704C18.2372 13.9245 19.2493 11.3404 19.2493 8.59417V8.56327C19.2493 8.31458 19.3906 8.08762 19.6179 7.97082C20.0792 7.7341 20.4527 7.3309 20.6957 6.81533C20.4451 6.85362 20.1904 6.75619 20.0343 6.55303C19.8529 6.31691 19.8509 5.99799 20.0293 5.75979C20.1256 5.63116 20.2129 5.49735 20.2907 5.35896C19.6545 5.61785 19.0504 5.84998 18.526 6.0042C18.3354 6.06009 18.123 6.0382 17.9489 5.94402C17.0152 5.43998 16.1456 5.13865 15.6213 5.13717C13.6867 5.16586 12.1137 6.77142 12.1137 8.71807C12.1137 8.9193 12.0215 9.10797 11.8611 9.23586C11.7006 9.36361 11.4919 9.41477 11.288 9.37573C8.10014 8.76716 6.21111 7.8546 4.24669 5.9418C3.96517 6.59547 3.88826 7.25387 4.01842 7.90398C4.15041 8.56253 4.50151 9.22241 5.03389 9.8122C5.23622 10.0361 5.26308 10.3563 5.10073 10.609C4.93898 10.8608 4.63152 10.9785 4.33596 10.9017C4.10494 10.8417 3.89254 10.7629 3.69112 10.6616C4.10143 11.5252 4.80715 12.324 5.69429 12.913C5.9514 13.0838 6.05883 13.4021 5.95568 13.6872C5.85237 13.9727 5.56383 14.1565 5.25194 14.134C4.91213 14.1096 4.61107 14.0471 4.33397 13.9416C4.83141 14.9233 5.62624 15.4634 6.85076 15.6698C7.14235 15.719 7.3694 15.9421 7.41579 16.225C7.46233 16.5078 7.31783 16.7881 7.05644 16.9225C6.01274 17.4587 4.872 17.7464 3.49627 17.8169Z" fill="black"/>
</svg>
