<svg width="24" height="24" viewBox="0 0 24 24" fill="none" xmlns="http://www.w3.org/2000/svg">
<path d="M13.1768 21H10.3554C9.8841 21 9.50074 20.6083 9.50074 20.1269V13.6252H7.85464C7.38336 13.6252 7 13.2334 7 12.752V9.96602C7 9.48454 7.38336 9.09288 7.85464 9.09288H9.50074V7.69775C9.50074 6.31444 9.92591 5.13753 10.7301 4.29446C11.538 3.44756 12.667 3 13.9951 3L16.1468 3.00357C16.6173 3.00439 17 3.39606 17 3.87671V6.46344C17 6.94492 16.6168 7.33658 16.1456 7.33658L14.6969 7.33713C14.255 7.33713 14.1425 7.42763 14.1185 7.45537C14.0788 7.50137 14.0316 7.63142 14.0316 7.99054V9.09274H16.0368C16.1877 9.09274 16.334 9.13078 16.4596 9.20247C16.7308 9.35724 16.8993 9.64989 16.8993 9.96616L16.8982 12.7522C16.8982 13.2334 16.5149 13.625 16.0436 13.625H14.0316V20.1269C14.0316 20.6083 13.6481 21 13.1768 21ZM10.5336 19.9448H12.9986V13.1527C12.9986 12.8313 13.2547 12.5698 13.5692 12.5698H15.8654L15.8663 10.1481H13.5691C13.2545 10.1481 12.9986 9.88664 12.9986 9.56516V7.99054C12.9986 7.57828 13.0396 7.10944 13.3442 6.75705C13.7122 6.33105 14.2923 6.28189 14.6966 6.28189L15.9671 6.28134V4.05853L13.9942 4.05524C11.8599 4.05524 10.5336 5.45105 10.5336 7.69775V9.56516C10.5336 9.88651 10.2777 10.1481 9.96314 10.1481H8.03288V12.5698H9.96314C10.2777 12.5698 10.5336 12.8313 10.5336 13.1527V19.9448ZM16.1448 4.05881H16.145H16.1448Z" fill="black"/>
</svg>
