<svg width="24" height="24" viewBox="0 0 24 24" fill="none" xmlns="http://www.w3.org/2000/svg">
<path d="M15.6689 4H8.33105C5.94287 4 4 5.94287 4 8.33105V15.6691C4 18.0571 5.94287 20 8.33105 20H15.6691C18.0571 20 20 18.0571 20 15.6691V8.33105C20 5.94287 18.0571 4 15.6689 4V4ZM19.062 15.6691C19.062 17.5399 17.5399 19.062 15.6689 19.062H8.33105C6.46008 19.062 4.93799 17.5399 4.93799 15.6691V8.33105C4.93799 6.46008 6.46008 4.93799 8.33105 4.93799H15.6691C17.5399 4.93799 19.062 6.46008 19.062 8.33105V15.6691Z" fill="black" stroke="black" stroke-width="0.3"/>
<path d="M12 8C9.79436 8 8 9.79436 8 12C8 14.2056 9.79436 16 12 16C14.2056 16 16 14.2056 16 12C16 9.79436 14.2056 8 12 8ZM12 15.1424C10.2674 15.1424 8.85761 13.7327 8.85761 12C8.85761 10.2674 10.2674 8.85761 12 8.85761C13.7327 8.85761 15.1424 10.2674 15.1424 12C15.1424 13.7327 13.7327 15.1424 12 15.1424Z" fill="black" stroke="black" stroke-width="0.3"/>
<path d="M16.5 7C16.2243 7 16 7.2243 16 7.49998C16 7.7757 16.2243 8 16.5 8C16.7757 8 17 7.7757 17 7.49998C17 7.22426 16.7757 7 16.5 7ZM16.5 7.63717C16.4243 7.63717 16.3628 7.57561 16.3628 7.49998C16.3628 7.4243 16.4243 7.36278 16.5 7.36278C16.5757 7.36278 16.6372 7.4243 16.6372 7.49998C16.6372 7.57561 16.5757 7.63717 16.5 7.63717Z" fill="black" stroke="black" stroke-width="0.3"/>
</svg>
