<?xml version="1.0" encoding="utf-8"?>
<!-- Generator: Adobe Illustrator 24.1.2, SVG Export Plug-In . SVG Version: 6.00 Build 0)  -->
<svg version="1.1" id="Слой_1" xmlns="http://www.w3.org/2000/svg" xmlns:xlink="http://www.w3.org/1999/xlink" x="0px" y="0px"
	 viewBox="0 0 24 24" style="enable-background:new 0 0 24 24;" xml:space="preserve">
<g>
	<path d="M15.7,4H8.3C5.9,4,4,5.9,4,8.3v7.3C4,18.1,5.9,20,8.3,20h7.3c2.4,0,4.3-1.9,4.3-4.3V8.3C20,5.9,18.1,4,15.7,4L15.7,4z
		 M19.1,15.7c0,1.9-1.5,3.4-3.4,3.4H8.3c-1.9,0-3.4-1.5-3.4-3.4V8.3c0-1.9,1.5-3.4,3.4-3.4h7.3c1.9,0,3.4,1.5,3.4,3.4V15.7z"/>
	<path d="M15.7,20.2H8.3c-2.5,0-4.5-2-4.5-4.5V8.3c0-2.5,2-4.5,4.5-4.5h7.3c2.5,0,4.5,2,4.5,4.5v7.3C20.2,18.1,18.1,20.2,15.7,20.2z
		 M8.3,4.1C6,4.1,4.1,6,4.1,8.3v7.3c0,2.3,1.9,4.2,4.2,4.2h7.3c2.3,0,4.2-1.9,4.2-4.2V8.3c0-2.3-1.9-4.2-4.2-4.2H8.3z M15.7,19.2
		H8.3c-2,0-3.5-1.6-3.5-3.5V8.3c0-2,1.6-3.5,3.5-3.5h7.3c2,0,3.5,1.6,3.5,3.5v7.3C19.2,17.6,17.6,19.2,15.7,19.2z M8.3,5.1
		c-1.8,0-3.2,1.5-3.2,3.2v7.3c0,1.8,1.5,3.2,3.2,3.2h7.3c1.8,0,3.2-1.5,3.2-3.2V8.3c0-1.8-1.5-3.2-3.2-3.2H8.3z"/>
</g>
<g>
	<path d="M12,8c-2.2,0-4,1.8-4,4c0,2.2,1.8,4,4,4c2.2,0,4-1.8,4-4C16,9.8,14.2,8,12,8z M12,15.1c-1.7,0-3.1-1.4-3.1-3.1
		c0-1.7,1.4-3.1,3.1-3.1c1.7,0,3.1,1.4,3.1,3.1C15.1,13.7,13.7,15.1,12,15.1z"/>
	<path d="M12,16.2c-2.3,0-4.1-1.9-4.1-4.2S9.7,7.9,12,7.9s4.2,1.9,4.2,4.1S14.3,16.2,12,16.2z M12,8.1c-2.1,0-3.9,1.7-3.9,3.9
		s1.7,3.8,3.9,3.8s3.8-1.7,3.8-3.8S14.1,8.1,12,8.1z M12,15.3c-1.8,0-3.3-1.5-3.3-3.3s1.5-3.3,3.3-3.3s3.3,1.5,3.3,3.3
		S13.8,15.3,12,15.3z M12,9c-1.6,0-3,1.3-3,3c0,1.7,1.3,3,3,3c1.7,0,3-1.3,3-3C15,10.4,13.7,9,12,9z"/>
</g>
<g>
	<path d="M16.5,7C16.2,7,16,7.2,16,7.5C16,7.8,16.2,8,16.5,8S17,7.8,17,7.5S16.8,7,16.5,7z M16.5,7.6c-0.1,0-0.1-0.1-0.1-0.1
		c0-0.1,0.1-0.1,0.1-0.1s0.1,0.1,0.1,0.1C16.6,7.6,16.6,7.6,16.5,7.6z"/>
	<path d="M16.5,8.1c-0.4,0-0.7-0.3-0.7-0.6s0.3-0.6,0.7-0.6s0.7,0.3,0.7,0.6S16.9,8.1,16.5,8.1z M16.5,7.1c-0.2,0-0.3,0.2-0.3,0.4
		s0.2,0.4,0.3,0.4s0.3-0.2,0.3-0.4S16.7,7.1,16.5,7.1z M16.5,7.8c-0.2,0-0.3-0.1-0.3-0.3s0.1-0.3,0.3-0.3s0.3,0.1,0.3,0.3
		S16.7,7.8,16.5,7.8z M16.5,7.5C16.5,7.5,16.5,7.5,16.5,7.5L16.5,7.5z"/>
</g>
</svg>
