<svg width="25" height="24" viewBox="0 0 25 24" fill="none" xmlns="http://www.w3.org/2000/svg">
<path d="M22.8267 4.27784C22.6209 4.02795 22.2798 3.93528 21.9765 4.04649L2.71333 10.9885C2.32849 11.128 2.05836 11.4662 2.00822 11.8712C1.95855 12.2743 2.13671 12.6655 2.47092 12.8906L5.22441 14.765C5.49117 14.9467 5.8342 14.9662 6.11986 14.8158L12.0928 11.6749L7.43765 15.1411C7.21911 15.3039 7.08854 15.5636 7.08854 15.8355V19.0463C7.08854 19.3775 7.2707 19.6809 7.5639 19.8385C7.85758 19.996 8.2123 19.9803 8.49124 19.7969L10.5832 18.4131L12.6404 19.8119C12.8206 19.9351 13.0353 20 13.2519 20C13.3251 20 13.3987 19.9925 13.4711 19.9775C13.76 19.9174 14.0155 19.7394 14.1724 19.4892L22.8877 5.15787C23.0574 4.88194 23.033 4.52884 22.8267 4.27784ZM13.2059 18.7106L11.0755 17.262C10.9273 17.161 10.7565 17.1105 10.5859 17.1105C10.419 17.1105 10.2519 17.1589 10.1056 17.2557L8.31964 18.4371V16.0167L16.5396 9.89594C16.9066 9.62257 16.9991 9.12504 16.7544 8.73871C16.5096 8.35237 16.0195 8.22184 15.6143 8.43498L5.73855 13.6284L3.40963 12.043L21.1484 5.65045L13.2059 18.7106Z" fill="black"/>
</svg>
